<svg width="22" height="18" viewBox="0 0 22 18" fill="none" xmlns="http://www.w3.org/2000/svg">
    <rect width="21.2643" height="18" rx="4" fill="black" fill-opacity="0.04"/>
    <path d="M7.875 6.5C8.55859 6.5 9.125 5.95312 9.125 5.25C9.125 4.56641 8.55859 4 7.875 4C7.17188 4 6.625 4.56641 6.625 5.25C6.625 5.95312 7.17188 6.5 7.875 6.5ZM12.875 6.5C13.5586 6.5 14.125 5.95312 14.125 5.25C14.125 4.56641 13.5586 4 12.875 4C12.1719 4 11.625 4.56641 11.625 5.25C11.625 5.95312 12.1719 6.5 12.875 6.5ZM8.5 7.125H7.25C6.54688 7.125 6 7.69141 6 8.375V10.25C6 10.6016 6.27344 10.875 6.625 10.875V13.375C6.625 13.7266 6.89844 14 7.25 14H8.5C8.83203 14 9.125 13.7266 9.125 13.375V10.875C9.45703 10.875 9.75 10.6016 9.75 10.25V8.375C9.75 7.69141 9.18359 7.125 8.5 7.125ZM15.2383 10.7188L14.418 7.80859C14.3008 7.41797 13.9297 7.125 13.5 7.125H12.2109C11.7813 7.125 11.4102 7.41797 11.293 7.80859L10.4727 10.7188C10.375 11.1094 10.668 11.5 11.0977 11.5H11.625V13.375C11.625 13.7266 11.8984 14 12.25 14H13.5C13.832 14 14.125 13.7266 14.125 13.375V11.5H14.6328C15.0625 11.5 15.3555 11.1094 15.2383 10.7188Z" fill="#535353"/>
</svg>
