<svg width="12" height="12" viewBox="0 0 12 12" fill="none" xmlns="http://www.w3.org/2000/svg">
    <path fill-rule="evenodd" clip-rule="evenodd" d="M9.33341 8.5C9.79365 8.5 10.1667 8.8731 10.1667 9.33333C10.1667 9.79357 9.79365 10.1667 9.33341 10.1667C8.87318 10.1667 8.50008 9.79357 8.50008 9.33333C8.50008 8.8731 8.87318 8.5 9.33341 8.5ZM11.1667 9.33333C11.1667 8.32081 10.3459 7.5 9.33341 7.5C8.32089 7.5 7.50008 8.32081 7.50008 9.33333C7.50008 10.3459 8.32089 11.1667 9.33341 11.1667C10.3459 11.1667 11.1667 10.3459 11.1667 9.33333Z" fill="#0092D0"/>
    <path fill-rule="evenodd" clip-rule="evenodd" d="M2.66667 1.83334C3.1269 1.83334 3.5 2.20644 3.5 2.66668C3.5 3.12691 3.1269 3.50001 2.66667 3.50001C2.20643 3.50001 1.83333 3.12691 1.83333 2.66668C1.83333 2.20644 2.20643 1.83334 2.66667 1.83334ZM4.5 2.66668C4.5 1.65415 3.67919 0.833344 2.66667 0.833344C1.65414 0.833344 0.833333 1.65415 0.833333 2.66668C0.833333 3.6792 1.65414 4.50001 2.66667 4.50001C3.67919 4.50001 4.5 3.6792 4.5 2.66668Z" fill="#0092D0"/>
    <path fill-rule="evenodd" clip-rule="evenodd" d="M11.0203 0.97979C10.825 0.784528 10.5085 0.784528 10.3132 0.97979L0.979861 10.3131C0.784599 10.5084 0.784599 10.825 0.979861 11.0202C1.17512 11.2155 1.49171 11.2155 1.68697 11.0202L11.0203 1.6869C11.2156 1.49163 11.2156 1.17505 11.0203 0.97979Z" fill="#0092D0"/>
</svg>
